<?xml version="1.0" standalone="no"?>
<!DOCTYPE svg PUBLIC "-//W3C//DTD SVG 20010904//EN"
 "http://www.w3.org/TR/2001/REC-SVG-20010904/DTD/svg10.dtd">
<svg version="1.0" xmlns="http://www.w3.org/2000/svg"
 width="500.000000pt" height="500.000000pt" viewBox="0 0 500.000000 500.000000"
 preserveAspectRatio="xMidYMid meet">

<g transform="translate(0.000000,500.000000) scale(0.100000,-0.100000)"
fill="#000000" stroke="none">
<path d="M1330 3686 c-239 -233 -437 -432 -439 -442 -6 -32 27 -44 119 -44 89
0 130 15 130 47 0 51 51 103 102 103 14 0 84 62 202 178 249 244 332 322 344
322 5 0 151 -137 323 -305 308 -299 314 -304 322 -275 11 44 61 80 110 80 l41
0 -57 58 c-31 32 -57 65 -57 74 0 17 362 368 380 368 6 0 104 -91 218 -201
247 -241 374 -368 348 -348 -18 13 -19 13 -8 -8 9 -16 12 -318 12 -1178 l0
-1157 -29 -29 -30 -29 -436 2 -437 3 30 -25 c16 -14 70 -60 121 -102 l92 -78
433 0 433 0 26 26 c16 16 28 42 32 67 3 23 5 550 3 1171 l-3 1128 -58 54 -58
54 84 0 c69 0 89 4 108 19 l24 20 -80 81 c-44 45 -243 240 -443 433 -261 253
-369 352 -386 352 -16 0 -93 -68 -266 -237 -146 -142 -252 -238 -263 -238 -12
0 -120 97 -267 240 -150 146 -255 240 -266 239 -11 0 -202 -178 -454 -423z"/>
<path d="M1664 3606 c-3 -8 -4 -31 -2 -52 l3 -39 45 0 45 0 3 53 3 52 -46 0
c-30 0 -47 -5 -51 -14z"/>
<path d="M1812 3568 l3 -53 45 0 45 0 3 53 3 52 -51 0 -51 0 3 -52z"/>
<path d="M2732 3568 l3 -53 45 0 45 0 3 53 3 52 -51 0 -51 0 3 -52z"/>
<path d="M2882 3568 l3 -53 45 0 45 0 3 53 3 52 -51 0 -51 0 3 -52z"/>
<path d="M1664 3466 c-3 -8 -4 -31 -2 -52 3 -39 3 -39 51 -42 l47 -3 0 55 0
56 -45 0 c-30 0 -47 -5 -51 -14z"/>
<path d="M1814 3467 c-3 -8 -4 -32 -2 -53 l3 -39 45 0 45 0 0 50 0 50 -43 3
c-30 2 -44 -1 -48 -11z"/>
<path d="M2734 3466 c-3 -8 -4 -31 -2 -52 l3 -39 48 -1 47 -1 0 53 0 54 -45 0
c-30 0 -47 -5 -51 -14z"/>
<path d="M2887 3474 c-4 -4 -7 -29 -7 -56 l0 -49 48 3 47 3 0 50 0 50 -40 3
c-23 2 -44 0 -48 -4z"/>
<path d="M2119 3293 c12 -23 16 -253 4 -253 -4 0 -17 10 -31 23 -23 22 -26 22
-337 22 -294 0 -314 -1 -334 -19 l-21 -19 0 -831 0 -832 43 -40 c23 -22 70
-64 103 -92 l62 -52 261 0 261 0 0 -119 c0 -118 0 -119 -29 -150 l-29 -31
-437 2 -437 3 30 -25 c16 -14 70 -60 121 -102 l92 -78 432 0 c426 0 434 0 456
21 12 11 26 32 32 46 5 13 9 146 9 294 0 148 2 269 5 269 3 0 39 -29 80 -65
l75 -65 314 0 315 0 21 27 21 26 -3 829 -3 829 -32 27 c-17 15 -64 54 -104 87
l-72 60 -311 0 c-277 0 -312 2 -323 16 -10 14 -94 87 -227 198 -18 15 -18 15
-7 -6z m819 -509 c24 -17 30 -62 10 -82 -21 -21 -66 -14 -84 13 -19 29 -12 58
19 73 29 14 29 14 55 -4z m4 -151 c16 -15 18 -35 18 -224 0 -196 -1 -209 -19
-219 -31 -16 -59 -12 -75 12 -13 18 -16 57 -16 215 0 180 1 194 20 213 24 24
47 25 72 3z m-622 -63 c0 -13 -7 -20 -20 -20 -13 0 -20 7 -20 20 0 13 7 20 20
20 13 0 20 -7 20 -20z m0 -855 c0 -28 -4 -35 -20 -35 -16 0 -20 7 -20 35 0 28
4 35 20 35 16 0 20 -7 20 -35z"/>
</g>
</svg>
