<?xml version="1.0" encoding="UTF-8"?>
<svg version="1.1" xmlns="http://www.w3.org/2000/svg" width="477" height="477">
<path d="M0 0 C1.31402802 0.00564972 1.31402802 0.00564972 2.65460205 0.01141357 C61.74576975 0.30884105 117.03713081 21.62332048 161.0625 61.25 C161.62984863 61.75563477 162.19719727 62.26126953 162.78173828 62.78222656 C206.66952709 101.97886244 233.88631479 158.76571846 239.0625 217.25 C239.21891524 220.36212319 239.2715747 223.47024874 239.30078125 226.5859375 C239.3105751 227.45471527 239.32036896 228.32349304 239.33045959 229.21859741 C239.89344454 292.15870236 221.56032255 350.8426817 179.0625 398.25 C178.52898926 398.85054199 177.99547852 399.45108398 177.44580078 400.06982422 C138.64353385 443.53060286 81.30855624 472.68379846 23.0625 477.25 C19.7013571 477.39533218 16.34449981 477.43663187 12.98046875 477.453125 C12.04560135 477.45882507 11.11073395 477.46452515 10.14753723 477.47039795 C8.17690131 477.47978364 6.20625016 477.48635609 4.2355957 477.49023438 C1.29543789 477.49985138 -1.64399252 477.53090046 -4.58398438 477.5625 C-21.90825156 477.66033561 -38.67366707 475.6982791 -55.5 471.5 C-56.54244873 471.24323486 -57.58489746 470.98646973 -58.65893555 470.72192383 C-92.7670155 462.07066394 -125.00722292 445.95189516 -151.9375 423.25 C-152.48148437 422.7947998 -153.02546875 422.33959961 -153.5859375 421.87060547 C-163.43615787 413.6145938 -172.67305217 405.12585561 -180.9375 395.25 C-181.35483398 394.75709473 -181.77216797 394.26418945 -182.20214844 393.75634766 C-218.68928208 350.43270449 -238.43017356 295.95131539 -238.3125 239.4375 C-238.31228851 238.4962326 -238.31207703 237.55496521 -238.31185913 236.58517456 C-238.27665055 220.825245 -237.2147236 205.70977048 -233.9375 190.25 C-233.75558105 189.36489746 -233.57366211 188.47979492 -233.38623047 187.56787109 C-224.95704686 147.65165665 -205.80511547 109.30691536 -177.93359375 79.3984375 C-176.11364754 77.43959128 -174.40032627 75.42704125 -172.6875 73.375 C-157.22037991 55.70337084 -137.15624076 41.86753393 -116.9375 30.25 C-116.29989746 29.88116699 -115.66229492 29.51233398 -115.00537109 29.13232422 C-95.56846059 18.01077467 -74.66256578 10.46783039 -52.9375 5.25 C-51.679375 4.93417969 -50.42125 4.61835937 -49.125 4.29296875 C-32.98560227 0.50095748 -16.51020923 -0.10854449 0 0 Z " fill="#FEFEFE" transform="translate(237.9375,-0.25)"/>
<path d="M0 0 C4.10763108 1.28046524 6.4695551 4.25120144 9.34375 7.3515625 C10.51419018 8.58463493 11.68738456 9.81509873 12.86328125 11.04296875 C13.4655957 11.67203125 14.06791016 12.30109375 14.68847656 12.94921875 C16.45742687 14.71535673 18.28476757 16.33399642 20.19140625 17.94921875 C23.84965295 21.0895931 27.21246542 24.45293456 30.5703125 27.90625 C31.10438217 28.45294846 31.63845184 28.99964691 32.18870544 29.56291199 C34.41225807 31.84052144 36.63401719 34.11937459 38.83691406 36.41699219 C40.46576818 38.11248557 42.1101388 39.79156648 43.7578125 41.46875 C44.24859283 41.98847382 44.73937317 42.50819763 45.24502563 43.04367065 C47.57482178 45.39117861 49.46097375 46.76379855 52.5859375 47.88720703 C56.61129841 47.75307282 57.68590936 46.43086828 60.4296875 43.5390625 C61.32171875 42.61996094 62.21375 41.70085937 63.1328125 40.75390625 C64.05803833 39.76632399 64.98251367 38.77803811 65.90625 37.7890625 C67.72424852 35.89101007 69.54452443 33.99513609 71.3671875 32.1015625 C72.24818115 31.18125244 73.1291748 30.26094238 74.03686523 29.31274414 C76.74511376 26.57268688 79.58342615 24.07783066 82.51660156 21.58544922 C84.88726156 19.4716203 87.08428681 17.23164117 89.29296875 14.94921875 C90.10185547 14.11455078 90.91074219 13.27988281 91.74414062 12.41992188 C93.41320023 10.68763033 95.07451524 8.94784777 96.72851562 7.20117188 C97.53353516 6.37552734 98.33855469 5.54988281 99.16796875 4.69921875 C99.88686279 3.94777588 100.60575684 3.19633301 101.34643555 2.42211914 C103.98817302 0.44753182 105.30441378 0.3243498 108.53125 0.7890625 C110.48828125 2.29296875 110.48828125 2.29296875 112.34375 4.3515625 C114.75869947 6.9930744 117.2244755 9.40968397 119.94921875 11.72265625 C126.95267519 17.78029261 133.32545287 24.52965987 139.83154297 31.10986328 C147.46636285 38.92722585 147.46636285 38.92722585 155.53125 46.2890625 C162.37401081 52.10577047 168.52232813 58.7287778 174.83154297 65.10986328 C183.68818046 74.09663104 183.68818046 74.09663104 193.06054688 82.53710938 C194.53125 83.7890625 194.53125 83.7890625 196.53125 85.7890625 C195.97569444 90.34461806 195.97569444 90.34461806 194.53125 91.7890625 C193.19109779 91.94488553 191.84366097 92.03950392 190.49609375 92.10546875 C189.68720703 92.14736328 188.87832031 92.18925781 188.04492188 92.23242188 C187.19478516 92.27173828 186.34464844 92.31105469 185.46875 92.3515625 C184.61474609 92.39474609 183.76074219 92.43792969 182.88085938 92.48242188 C180.76452963 92.58882952 178.64791187 92.68947981 176.53125 92.7890625 C177.07394531 93.24796875 177.61664063 93.706875 178.17578125 94.1796875 C178.89121094 94.79328125 179.60664063 95.406875 180.34375 96.0390625 C181.40529297 96.94398438 181.40529297 96.94398438 182.48828125 97.8671875 C185.9200016 101.09549804 187.68724817 103.06162425 187.90877342 107.87489986 C187.9253015 109.58521652 187.92515252 111.29574078 187.91220093 113.00608826 C187.9168809 113.94927872 187.92156087 114.89246919 187.92638266 115.86424118 C187.93837244 119.0326016 187.92885972 122.20053266 187.91943359 125.36889648 C187.92349754 127.63720961 187.92883843 129.90552075 187.93536377 132.17382812 C187.94906487 138.34113484 187.94372693 144.50829135 187.93422651 150.67560077 C187.92664348 157.12350549 187.93367183 163.57139715 187.93838501 170.01930237 C187.94419701 181.54376828 187.93485939 193.06815727 187.919607 204.59261114 C187.90620676 215.04102275 187.90852891 225.48933435 187.92236328 235.93774414 C187.93841975 248.07008096 187.94439262 260.20233929 187.93552649 272.33468872 C187.93084535 278.75728861 187.9302372 285.17981961 187.94013596 291.60241508 C187.94879226 297.6410013 187.94280796 303.67939842 187.92545319 309.71796417 C187.92148105 311.93635557 187.92263476 314.15476284 187.92924118 316.37314796 C187.93741795 319.39733234 187.92718151 322.42090771 187.91220093 325.4450531 C187.91889309 326.32656947 187.92558526 327.20808584 187.93248022 328.11631483 C187.88716005 332.82112882 187.62481227 335.99391038 184.53125 339.7890625 C180.7614583 342.30225696 177.73428755 342.11319702 173.36303711 342.14306641 C172.53010132 342.1562088 171.69716553 342.1693512 170.83898926 342.18289185 C168.07885366 342.22234931 165.31893612 342.24568566 162.55859375 342.265625 C161.61399355 342.27377605 160.66939335 342.28192711 159.6961689 342.29032516 C154.69206747 342.33205205 149.68807567 342.36064765 144.68383789 342.37939453 C139.53087481 342.401472 134.37965158 342.47020413 129.2273016 342.54973793 C125.25251716 342.60221322 121.27814176 342.61879082 117.30304146 342.62595749 C115.4048754 342.63566018 113.50672584 342.65880621 111.60890007 342.69603348 C94.92278872 343.00287843 94.92278872 343.00287843 88.54467773 337.95361328 C87.17522911 336.59663217 85.83444156 335.20979436 84.53125 333.7890625 C83.17290486 332.61120247 81.80254288 331.44686876 80.4140625 330.3046875 C79.15974105 329.21812509 77.90710245 328.12961663 76.65625 327.0390625 C76.01945313 326.48863281 75.38265625 325.93820312 74.7265625 325.37109375 C66.05598239 317.83852728 66.05598239 317.83852728 64.53125 314.7890625 C64.43578101 312.4389712 64.39933939 310.0863885 64.390625 307.734375 C64.37229763 306.30076535 64.35272738 304.86717116 64.33203125 303.43359375 C64.30305653 301.17307471 64.28124989 298.91354888 64.28076172 296.65283203 C64.27742452 294.47078311 64.24286843 292.29102559 64.203125 290.109375 C64.1937793 288.80242676 64.18443359 287.49547852 64.17480469 286.14892578 C63.83030828 282.60659496 63.83030828 282.60659496 60.98925781 280.33154297 C59.77254395 279.56801514 59.77254395 279.56801514 58.53125 278.7890625 C58.54124275 279.82476631 58.54124275 279.82476631 58.55143738 280.88139343 C58.61780646 288.06761011 58.66305738 295.25373971 58.69604492 302.44018555 C58.70943702 305.12225804 58.73031077 307.80411742 58.75756836 310.48608398 C58.79395611 314.34104501 58.810978 318.19567983 58.82421875 322.05078125 C58.84744453 323.84946907 58.84744453 323.84946907 58.87113953 325.68449402 C58.87147942 327.3656707 58.87147942 327.3656707 58.87182617 329.08081055 C58.88181892 330.55640694 58.88181892 330.55640694 58.89201355 332.06181335 C58.4614736 335.31654827 57.46618686 337.15501304 55.53125 339.7890625 C51.7614583 342.30225696 48.73428755 342.11319702 44.36303711 342.14306641 C43.53010132 342.1562088 42.69716553 342.1693512 41.83898926 342.18289185 C39.07885366 342.22234931 36.31893612 342.24568566 33.55859375 342.265625 C32.61399355 342.27377605 31.66939335 342.28192711 30.6961689 342.29032516 C25.69206747 342.33205205 20.68807567 342.36064765 15.68383789 342.37939453 C10.53087481 342.401472 5.37965158 342.47020413 0.2273016 342.54973793 C-3.74748284 342.60221322 -7.72185824 342.61879082 -11.69695854 342.62595749 C-13.5951246 342.63566018 -15.49327416 342.65880621 -17.39109993 342.69603348 C-34.07721128 343.00287843 -34.07721128 343.00287843 -40.45532227 337.95361328 C-41.82477089 336.59663217 -43.16555844 335.20979436 -44.46875 333.7890625 C-45.82709514 332.61120247 -47.19745712 331.44686876 -48.5859375 330.3046875 C-49.84025895 329.21812509 -51.09289755 328.12961663 -52.34375 327.0390625 C-53.29894531 326.21341797 -53.29894531 326.21341797 -54.2734375 325.37109375 C-62.94401761 317.83852728 -62.94401761 317.83852728 -64.46875 314.7890625 C-64.56480965 311.85374315 -64.59883703 308.94221102 -64.58900452 306.00668335 C-64.58985894 305.08617522 -64.59071337 304.16566709 -64.59159368 303.21726477 C-64.59324876 300.11406204 -64.58772663 297.01091264 -64.58227539 293.90771484 C-64.5819935 291.69069927 -64.58215129 289.47368361 -64.5827179 287.25666809 C-64.58300579 281.2218469 -64.5771103 275.18704543 -64.57014394 269.15222883 C-64.56390912 262.85145638 -64.5633065 256.55068351 -64.56211853 250.24990845 C-64.55935967 239.66920638 -64.5531058 229.0885108 -64.54418945 218.5078125 C-64.53501406 207.60839881 -64.52793385 196.70898709 -64.52368164 185.80957031 C-64.52328756 184.80224748 -64.52328756 184.80224748 -64.52288551 183.77457468 C-64.5215805 180.40569993 -64.52031678 177.03682517 -64.51907361 173.66795039 C-64.50861007 145.70831603 -64.49101135 117.74868978 -64.46875 89.7890625 C-65.95375 90.7790625 -65.95375 90.7790625 -67.46875 91.7890625 C-69.61352539 92.04785156 -69.61352539 92.04785156 -72.06640625 92.0546875 C-73.39188477 92.05855469 -73.39188477 92.05855469 -74.74414062 92.0625 C-75.66388672 92.05476563 -76.58363281 92.04703125 -77.53125 92.0390625 C-78.45486328 92.04679687 -79.37847656 92.05453125 -80.33007812 92.0625 C-81.65362305 92.05863281 -81.65362305 92.05863281 -83.00390625 92.0546875 C-83.812229 92.05243164 -84.62055176 92.05017578 -85.45336914 92.04785156 C-87.46875 91.7890625 -87.46875 91.7890625 -89.46875 89.7890625 C-89.50842948 86.10337032 -88.13333535 84.17371811 -85.72827148 81.57861328 C-84.52586887 80.37008999 -83.3122853 79.17262465 -82.08984375 77.984375 C-81.44435074 77.3421701 -80.79885773 76.69996521 -80.13380432 76.03829956 C-78.06713493 73.9873635 -75.98674198 71.95096505 -73.90625 69.9140625 C-72.53234107 68.55165003 -71.15928466 67.18837727 -69.78710938 65.82421875 C-68.45128263 64.50183418 -67.11471655 63.18019597 -65.77734375 61.859375 C-64.85966469 60.95277634 -64.85966469 60.95277634 -63.92344666 60.02786255 C-60.83042572 57.00136353 -57.68451468 54.07618501 -54.41235352 51.24365234 C-50.80546715 48.11910164 -47.40908839 44.84487847 -44.0625 41.4453125 C-43.49349976 40.87252563 -42.92449951 40.29973877 -42.33825684 39.70959473 C-40.54592018 37.90520999 -38.75690684 36.0975889 -36.96875 34.2890625 C-23.47226891 20.63883793 -23.47226891 20.63883793 -17.19482422 15.31005859 C-13.60574023 12.14740043 -10.37758376 8.58456217 -7.13867188 5.06835938 C-4.83228438 2.67294365 -3.19886882 1.02242326 0 0 Z " fill="#77C434" transform="translate(177.46875,79.2109375)"/>
<path d="M0 0 C6.7548121 4.50320807 6.7548121 4.50320807 9.7265625 7.09375 C10.3659375 7.64933594 11.0053125 8.20492187 11.6640625 8.77734375 C12.31117188 9.34582031 12.95828125 9.91429687 13.625 10.5 C14.27984375 11.06847656 14.9346875 11.63695312 15.609375 12.22265625 C20.76720696 16.72270802 20.76720696 16.72270802 22.74082947 19.07359314 C25.64185422 21.54731254 27.10998973 21.47141821 30.88256836 21.40649414 C32.06737289 21.39650894 33.25217743 21.38652374 34.47288513 21.37623596 C35.74898148 21.34617966 37.02507782 21.31612335 38.33984375 21.28515625 C40.34780595 21.26563832 42.35576847 21.24613667 44.36373997 21.22759914 C47.88860233 21.18928308 51.41297884 21.12390351 54.9375 21.0625 C59.13888005 20.99307453 63.34012397 20.9302618 67.54188538 20.88926697 C70.15751066 20.86195818 72.77303339 20.82024865 75.38816833 20.76271057 C76.57612503 20.74957321 77.76408173 20.73643585 78.98803711 20.72290039 C80.55212563 20.69481041 80.55212563 20.69481041 82.14781189 20.66615295 C86.80623244 21.21141851 89.98058029 23.81708996 93.4453125 26.8125 C94.04730469 27.33070313 94.64929688 27.84890625 95.26953125 28.3828125 C95.88183594 28.91648438 96.49414062 29.45015625 97.125 30 C97.74503906 30.53367188 98.36507812 31.06734375 99.00390625 31.6171875 C100.68062703 33.06673966 102.35400187 34.5156392 104 36 C104.51903711 36.38519302 105.03807423 36.77038605 105.57283974 37.16725159 C107.73217067 39.94024803 107.37775789 42.23992309 107.38095093 45.71850586 C107.38797089 46.74823092 107.38797089 46.74823092 107.39513266 47.79875851 C107.40712063 50.10431545 107.39761102 52.40928215 107.38818359 54.71484375 C107.39224762 56.36557361 107.39758855 58.01630074 107.40411377 59.66702271 C107.41781331 64.15457427 107.41247789 68.64191938 107.40297651 73.12947464 C107.39539355 77.8206158 107.40242172 82.51173902 107.40713501 87.20288086 C107.41259655 95.08157533 107.40539052 102.96018551 107.39111328 110.83886719 C107.374786 119.95423227 107.38007423 129.06939607 107.3965925 138.18475628 C107.41019604 146.00392476 107.41213258 153.82303256 107.40427649 161.64220905 C107.39959374 166.3153698 107.39899162 170.98843587 107.40888596 175.66159058 C107.41753691 180.05452801 107.41156813 184.44720533 107.39420319 188.84011459 C107.3902283 190.45463504 107.39138945 192.06917728 107.39799118 193.68368912 C107.40615758 195.88325537 107.39594569 198.08198178 107.38095093 200.28149414 C107.37981985 201.51372208 107.37868877 202.74595001 107.37752342 204.01551819 C107 207 107 207 105.64233303 208.89231205 C103.16361273 210.56410976 101.06575318 210.44912779 98.09838867 210.53100586 C96.27454903 210.58876442 96.27454903 210.58876442 94.41386414 210.64768982 C93.09521866 210.66985062 91.77657318 210.69201141 90.41796875 210.71484375 C89.74314264 210.72707033 89.06831654 210.73929691 88.37304115 210.751894 C84.79079598 210.81449098 81.20889431 210.85736168 77.6262207 210.88549805 C74.68484086 210.91193505 71.74778292 210.97414238 68.80786133 211.07006836 C41.81905298 211.93333314 41.81905298 211.93333314 33.89485168 205.68885803 C31.34920398 203.28126664 29.17307813 200.74897252 27 198 C26.34 197.67 25.68 197.34 25 197 C25.00999275 198.03570381 25.00999275 198.03570381 25.02018738 199.09233093 C25.08655646 206.27854761 25.13180738 213.46467721 25.16479492 220.65112305 C25.17818702 223.33319554 25.19906077 226.01505492 25.22631836 228.69702148 C25.26270611 232.55198251 25.279728 236.40661733 25.29296875 240.26171875 C25.30845261 241.46084396 25.32393646 242.65996918 25.33988953 243.89543152 C25.34011612 245.01621597 25.34034271 246.13700043 25.34057617 247.29174805 C25.35056892 248.76734444 25.35056892 248.76734444 25.36076355 250.27275085 C24.9302236 253.52748577 23.93493686 255.36595054 22 258 C18.2302083 260.51319446 15.20303755 260.32413452 10.83178711 260.35400391 C9.99885132 260.3671463 9.16591553 260.3802887 8.30773926 260.39382935 C5.54760366 260.43328681 2.78768612 260.45662316 0.02734375 260.4765625 C-0.91725645 260.48471355 -1.86185665 260.49286461 -2.8350811 260.50126266 C-7.83918253 260.54298955 -12.84317433 260.57158515 -17.84741211 260.59033203 C-23.00037519 260.6124095 -28.15159842 260.68114163 -33.3039484 260.76067543 C-37.27873284 260.81315072 -41.25310824 260.82972832 -45.22820854 260.83689499 C-47.1263746 260.84659768 -49.02452416 260.86974371 -50.92234993 260.90697098 C-67.60877706 261.21382174 -67.60877706 261.21382174 -74.00512695 256.14379883 C-75.367564 254.7929157 -76.70279226 253.41363786 -78 252 C-79.25787476 250.93063786 -80.52863443 249.87593251 -81.8203125 248.84765625 C-82.92301089 247.92062028 -84.02461089 246.9922759 -85.125 246.0625 C-85.69992188 245.58232422 -86.27484375 245.10214844 -86.8671875 244.60742188 C-88.26455732 243.42797521 -89.63530384 242.21710363 -91 241 C-91 240.67 -91 240.34 -91 240 C-89.93368851 239.99857498 -88.86737701 239.99714996 -87.76875305 239.99568176 C-77.71897491 239.97901113 -67.66960164 239.93623551 -57.62003803 239.86790943 C-52.4534201 239.83362084 -47.28709844 239.80852653 -42.12036133 239.80444336 C-37.13396144 239.80016445 -32.14823012 239.77173542 -27.1620388 239.72656822 C-25.2598987 239.71358021 -23.35767864 239.70929015 -21.45549965 239.71384621 C-18.79031848 239.718743 -16.12709829 239.69270221 -13.4621582 239.65942383 C-12.67597107 239.66804947 -11.88978394 239.67667511 -11.07977295 239.68556213 C-7.18473409 239.60404799 -5.18869271 239.13798236 -2.01530457 236.81742859 C0.25005742 233.65041565 0.64528892 232.11032392 0.70703125 228.26171875 C0.73603516 227.19501953 0.76503906 226.12832031 0.79492188 225.02929688 C0.80362305 223.37510742 0.80362305 223.37510742 0.8125 221.6875 C0.83763672 220.56537109 0.86277344 219.44324219 0.88867188 218.28710938 C0.9474532 215.52438714 0.9837998 212.76324608 1 210 C0.37740799 210.02442673 -0.24518402 210.04885345 -0.88664246 210.07402039 C-7.42460947 210.31924672 -13.96125247 210.48402522 -20.50268555 210.60424805 C-22.93649428 210.65923571 -25.3699452 210.73405673 -27.80249023 210.82983398 C-51.2624536 211.72973412 -51.2624536 211.72973412 -58.67578125 204.89453125 C-60.00717129 203.46889439 -61.33896762 202.03934717 -62.56730843 200.52401924 C-63.97442226 198.90288071 -63.97442226 198.90288071 -65.97723198 197.73402214 C-69.77790645 195.19547718 -71.71847953 193.24881254 -72.74172878 188.70972347 C-73.02273125 184.43354077 -73.04815199 180.22077497 -72.98754883 175.9387207 C-72.99348252 174.29886339 -73.00286529 172.65901549 -73.01542664 171.01919556 C-73.03902994 166.57882515 -73.01265368 162.14003925 -72.97580934 157.69981027 C-72.9443373 153.05054332 -72.95437562 148.4013447 -72.95866394 143.7519989 C-72.95949247 135.94825244 -72.92869693 128.14512606 -72.87817383 120.34155273 C-72.82005474 111.31798558 -72.80783141 102.29526456 -72.8210333 93.27153903 C-72.8330279 84.58802217 -72.81664286 75.90479865 -72.78589439 67.22133446 C-72.77307165 63.5264032 -72.76949131 59.83163301 -72.77317238 56.13668251 C-72.77593281 51.78858298 -72.75363952 47.44131098 -72.71188545 43.09341812 C-72.70047164 41.49708653 -72.6975518 39.90066852 -72.70369339 38.30430794 C-72.71062237 36.12659403 -72.68683977 33.95132413 -72.65510559 31.77388 C-72.64932401 30.55514348 -72.64354242 29.33640696 -72.63758564 28.08073902 C-72 25 -72 25 -69.63884926 22.60879898 C-66.48654618 20.6869681 -64.60262567 20.48815396 -60.92797852 20.46655273 C-59.72645645 20.4507164 -58.52493439 20.43488007 -57.28700256 20.41856384 C-55.99733078 20.42352371 -54.707659 20.42848358 -53.37890625 20.43359375 C-52.03278677 20.42835426 -50.68667097 20.42207659 -49.34056091 20.41481018 C-46.52365811 20.40442007 -43.70726088 20.40894607 -40.89038086 20.42358398 C-37.29098341 20.4407627 -33.69318375 20.41728411 -30.09396458 20.38209438 C-27.31509442 20.36006896 -24.53660352 20.36157409 -21.75767326 20.3698597 C-19.78905441 20.3710721 -17.82045885 20.35118609 -15.85194397 20.33091736 C-14.64726974 20.34345047 -13.44259552 20.35598358 -12.20141602 20.36889648 C-11.14616226 20.36985825 -10.09090851 20.37082001 -9.00367737 20.37181091 C-6 21 -6 21 0 26 C0 17.42 0 8.84 0 0 Z " fill="#006837" transform="translate(211,161)"/>
<path d="M0 0 C4.10763108 1.28046524 6.4695551 4.25120144 9.34375 7.3515625 C10.51419018 8.58463493 11.68738456 9.81509873 12.86328125 11.04296875 C13.4655957 11.67203125 14.06791016 12.30109375 14.68847656 12.94921875 C16.45742687 14.71535673 18.28476757 16.33399642 20.19140625 17.94921875 C23.84965295 21.0895931 27.21246542 24.45293456 30.5703125 27.90625 C31.10438217 28.45294846 31.63845184 28.99964691 32.18870544 29.56291199 C34.41225807 31.84052144 36.63401719 34.11937459 38.83691406 36.41699219 C40.46576818 38.11248557 42.1101388 39.79156648 43.7578125 41.46875 C44.24859283 41.98847382 44.73937317 42.50819763 45.24502563 43.04367065 C47.57482178 45.39117861 49.46097375 46.76379855 52.5859375 47.88720703 C56.61129841 47.75307282 57.68590936 46.43086828 60.4296875 43.5390625 C61.32171875 42.61996094 62.21375 41.70085937 63.1328125 40.75390625 C64.05803833 39.76632399 64.98251367 38.77803811 65.90625 37.7890625 C67.72424852 35.89101007 69.54452443 33.99513609 71.3671875 32.1015625 C72.24818115 31.18125244 73.1291748 30.26094238 74.03686523 29.31274414 C76.74511376 26.57268688 79.58342615 24.07783066 82.51660156 21.58544922 C84.88726156 19.4716203 87.08428681 17.23164117 89.29296875 14.94921875 C90.10185547 14.11455078 90.91074219 13.27988281 91.74414062 12.41992188 C93.41320023 10.68763033 95.07451524 8.94784777 96.72851562 7.20117188 C97.53353516 6.37552734 98.33855469 5.54988281 99.16796875 4.69921875 C99.88686279 3.94777588 100.60575684 3.19633301 101.34643555 2.42211914 C103.98817302 0.44753182 105.30441378 0.3243498 108.53125 0.7890625 C110.48828125 2.29296875 110.48828125 2.29296875 112.34375 4.3515625 C114.75869947 6.9930744 117.2244755 9.40968397 119.94921875 11.72265625 C126.95267519 17.78029261 133.32545287 24.52965987 139.83154297 31.10986328 C147.46636285 38.92722585 147.46636285 38.92722585 155.53125 46.2890625 C162.37401081 52.10577047 168.52232813 58.7287778 174.83154297 65.10986328 C183.68818046 74.09663104 183.68818046 74.09663104 193.06054688 82.53710938 C194.53125 83.7890625 194.53125 83.7890625 196.53125 85.7890625 C195.97569444 90.34461806 195.97569444 90.34461806 194.53125 91.7890625 C193.19109779 91.94488553 191.84366097 92.03950392 190.49609375 92.10546875 C189.68720703 92.14736328 188.87832031 92.18925781 188.04492188 92.23242188 C187.19478516 92.27173828 186.34464844 92.31105469 185.46875 92.3515625 C184.61474609 92.39474609 183.76074219 92.43792969 182.88085938 92.48242188 C180.76452963 92.58882952 178.64791187 92.68947981 176.53125 92.7890625 C177.07394531 93.24796875 177.61664063 93.706875 178.17578125 94.1796875 C178.89121094 94.79328125 179.60664063 95.406875 180.34375 96.0390625 C181.40529297 96.94398438 181.40529297 96.94398438 182.48828125 97.8671875 C185.9200016 101.09549804 187.68724817 103.06162425 187.90877342 107.87489986 C187.9253015 109.58521652 187.92515252 111.29574078 187.91220093 113.00608826 C187.9168809 113.94927872 187.92156087 114.89246919 187.92638266 115.86424118 C187.93837244 119.0326016 187.92885972 122.20053266 187.91943359 125.36889648 C187.92349754 127.63720961 187.92883843 129.90552075 187.93536377 132.17382812 C187.94906487 138.34113484 187.94372693 144.50829135 187.93422651 150.67560077 C187.92664348 157.12350549 187.93367183 163.57139715 187.93838501 170.01930237 C187.94419701 181.54376828 187.93485939 193.06815727 187.919607 204.59261114 C187.90620676 215.04102275 187.90852891 225.48933435 187.92236328 235.93774414 C187.93841975 248.07008096 187.94439262 260.20233929 187.93552649 272.33468872 C187.93084535 278.75728861 187.9302372 285.17981961 187.94013596 291.60241508 C187.94879226 297.6410013 187.94280796 303.67939842 187.92545319 309.71796417 C187.92148105 311.93635557 187.92263476 314.15476284 187.92924118 316.37314796 C187.93741795 319.39733234 187.92718151 322.42090771 187.91220093 325.4450531 C187.91889309 326.32656947 187.92558526 327.20808584 187.93248022 328.11631483 C187.88716005 332.82112882 187.62481227 335.99391038 184.53125 339.7890625 C180.7614583 342.30225696 177.73428755 342.11319702 173.36303711 342.14306641 C172.53010132 342.1562088 171.69716553 342.1693512 170.83898926 342.18289185 C168.07885366 342.22234931 165.31893612 342.24568566 162.55859375 342.265625 C161.61399355 342.27377605 160.66939335 342.28192711 159.6961689 342.29032516 C154.69206747 342.33205205 149.68807567 342.36064765 144.68383789 342.37939453 C139.53087481 342.401472 134.37965158 342.47020413 129.2273016 342.54973793 C125.25251716 342.60221322 121.27814176 342.61879082 117.30304146 342.62595749 C115.4048754 342.63566018 113.50672584 342.65880621 111.60890007 342.69603348 C94.92247294 343.00288424 94.92247294 343.00288424 88.52612305 337.93286133 C87.163686 336.5819782 85.82845774 335.20270036 84.53125 333.7890625 C83.27337524 332.71970036 82.00261557 331.66499501 80.7109375 330.63671875 C79.60823911 329.70968278 78.50663911 328.7813384 77.40625 327.8515625 C76.54386719 327.13129883 76.54386719 327.13129883 75.6640625 326.39648438 C74.26669268 325.21703771 72.89594616 324.00616613 71.53125 322.7890625 C71.53125 322.4590625 71.53125 322.1290625 71.53125 321.7890625 C72.59756149 321.78763748 73.66387299 321.78621246 74.76249695 321.78474426 C84.81227509 321.76807363 94.86164836 321.72529801 104.91121197 321.65697193 C110.0778299 321.62268334 115.24415156 321.59758903 120.41088867 321.59350586 C125.39728856 321.58922695 130.38301988 321.56079792 135.3692112 321.51563072 C137.2713513 321.50264271 139.17357136 321.49835265 141.07575035 321.50290871 C143.74093152 321.5078055 146.40415171 321.48176471 149.0690918 321.44848633 C149.85527893 321.45711197 150.64146606 321.46573761 151.45147705 321.47462463 C155.11749317 321.39790341 157.23592928 321.00209204 160.23194122 318.84091949 C163.41130233 314.62097499 163.23884026 311.47422224 163.18635559 306.32011414 C163.19627224 305.36185173 163.20618889 304.40358933 163.21640605 303.41628867 C163.24339247 300.20256067 163.23459553 296.98993786 163.22583008 293.77612305 C163.23751557 291.47311298 163.25128427 289.17011267 163.26698303 286.86712646 C163.30263674 280.60872574 163.30609494 274.35069507 163.30167222 268.09220862 C163.30048385 262.86851953 163.31392267 257.64490777 163.32705516 252.42123824 C163.35913832 239.39200666 163.35930216 226.36298778 163.34569123 213.33373336 C163.33495067 202.02602675 163.36701298 190.71891264 163.41914991 179.41133644 C163.47229761 167.7945503 163.49491944 156.17807229 163.48730963 144.56116325 C163.48342751 138.04159129 163.49156704 131.52259087 163.52991676 125.00311852 C163.56473996 118.87060496 163.56096201 112.73930608 163.52757835 106.60679626 C163.52179818 104.35740227 163.52964441 102.10792534 163.55218506 99.85863686 C164.31973194 86.73252534 164.31973194 86.73252534 158.6960907 75.58430481 C156.64225904 74.04422293 156.64225904 74.04422293 154.53125 72.7890625 C153.30763847 71.76538594 152.09699828 70.72578629 150.90625 69.6640625 C150.24625 69.09558594 149.58625 68.52710938 148.90625 67.94140625 C142.57060781 62.19973052 136.66943399 55.97255507 130.65820312 49.89550781 C121.5868457 40.67795035 121.5868457 40.67795035 111.984375 32.0234375 C110.53125 30.7890625 110.53125 30.7890625 108.53125 28.7890625 C106.16040129 28.24037603 106.16040129 28.24037603 103.53125 28.7890625 C100.94507726 30.70062851 100.94507726 30.70062851 98.51171875 33.35546875 C98.04945389 33.82718002 97.58718903 34.2988913 97.11091614 34.78489685 C95.63459012 36.29574081 94.17630072 37.82261761 92.71875 39.3515625 C90.8003652 41.33670722 88.8753115 43.31530507 86.94921875 45.29296875 C85.57020386 46.71077637 85.57020386 46.71077637 84.16333008 48.15722656 C79.97822742 52.34194103 75.52018372 56.13970283 70.96875 59.9140625 C69.27443434 61.7032081 69.27443434 61.7032081 69.65625 64.109375 C70.77584564 67.53813664 72.46938473 69.09129771 75.09375 71.5390625 C76.58438621 72.94365574 78.06681606 74.35717154 79.53125 75.7890625 C79.53125 76.1190625 79.53125 76.4490625 79.53125 76.7890625 C78.64373047 76.79292969 78.64373047 76.79292969 77.73828125 76.796875 C73.00505038 76.9655239 73.00505038 76.9655239 68.890625 79.05078125 C66.6446683 81.73645839 65.04645442 84.65673407 63.53125 87.7890625 C62.685625 86.93183594 61.84 86.07460937 60.96875 85.19140625 C59.8230554 84.03632071 58.67721412 82.88138065 57.53125 81.7265625 C56.70173828 80.88448242 56.70173828 80.88448242 55.85546875 80.02539062 C52.94284854 77.09603122 49.98659927 74.28713905 46.84375 71.60546875 C40.54117941 66.15978668 34.79709392 60.11020439 28.94921875 54.18652344 C23.50184244 48.67494108 18.05724391 43.23720366 12.15380859 38.20654297 C9.37580269 35.77965427 6.95448798 33.02916021 4.48828125 30.29296875 C2.62582536 28.61046153 2.62582536 28.61046153 0.1953125 28.43701172 C-3.40910511 28.91332863 -4.55254251 30.31284783 -7.05078125 32.91796875 C-7.90091797 33.78873047 -8.75105469 34.65949219 -9.62695312 35.55664062 C-10.94083008 36.94012695 -10.94083008 36.94012695 -12.28125 38.3515625 C-14.01451241 40.14686562 -15.75015669 41.93987251 -17.48828125 43.73046875 C-18.33463135 44.60364746 -19.18098145 45.47682617 -20.05297852 46.37646484 C-22.13331099 48.45406419 -24.24805782 50.39532339 -26.484375 52.30078125 C-29.60615446 54.96150031 -32.46560493 57.78488806 -35.30859375 60.7421875 C-36.14455078 61.6084375 -36.98050781 62.4746875 -37.84179688 63.3671875 C-39.55739119 65.15464601 -41.26310291 66.95164035 -42.95898438 68.7578125 C-47.53868391 73.46795767 -51.11716597 76.76510247 -57.61572266 78.24975586 C-60.73417537 79.15735297 -61.88907108 81.07201477 -63.46875 83.7890625 C-64.17039642 85.77706068 -64.84247872 87.77604767 -65.46875 89.7890625 C-67.91861932 92.23893182 -68.605828 92.04537561 -71.96875 92.0546875 C-72.855625 92.05726563 -73.7425 92.05984375 -74.65625 92.0625 C-75.584375 92.05476563 -76.5125 92.04703125 -77.46875 92.0390625 C-78.396875 92.04679687 -79.325 92.05453125 -80.28125 92.0625 C-81.6115625 92.05863281 -81.6115625 92.05863281 -82.96875 92.0546875 C-83.7834375 92.05243164 -84.598125 92.05017578 -85.4375 92.04785156 C-87.46875 91.7890625 -87.46875 91.7890625 -89.46875 89.7890625 C-89.50842948 86.10337032 -88.13333535 84.17371811 -85.72827148 81.57861328 C-84.52586887 80.37008999 -83.3122853 79.17262465 -82.08984375 77.984375 C-81.44435074 77.3421701 -80.79885773 76.69996521 -80.13380432 76.03829956 C-78.06713493 73.9873635 -75.98674198 71.95096505 -73.90625 69.9140625 C-72.53234107 68.55165003 -71.15928466 67.18837727 -69.78710938 65.82421875 C-68.45128263 64.50183418 -67.11471655 63.18019597 -65.77734375 61.859375 C-64.85966469 60.95277634 -64.85966469 60.95277634 -63.92344666 60.02786255 C-60.83042572 57.00136353 -57.68451468 54.07618501 -54.41235352 51.24365234 C-50.80546715 48.11910164 -47.40908839 44.84487847 -44.0625 41.4453125 C-43.49349976 40.87252563 -42.92449951 40.29973877 -42.33825684 39.70959473 C-40.54592018 37.90520999 -38.75690684 36.0975889 -36.96875 34.2890625 C-23.47226891 20.63883793 -23.47226891 20.63883793 -17.19482422 15.31005859 C-13.60574023 12.14740043 -10.37758376 8.58456217 -7.13867188 5.06835938 C-4.83228438 2.67294365 -3.19886882 1.02242326 0 0 Z " fill="#040603" transform="translate(177.46875,79.2109375)"/>
<path d="M0 0 C0.78288391 0.00318237 1.56576782 0.00636475 2.37237549 0.00964355 C4.94551496 0.02217162 7.5184832 0.04305523 10.09155273 0.06567383 C11.41439427 0.07610938 11.41439427 0.07610938 12.76395988 0.08675575 C17.42523552 0.12405723 22.08639465 0.16802507 26.74755859 0.21728516 C31.55822788 0.26676214 36.36873062 0.29286336 41.1795969 0.31371593 C44.88495463 0.33408236 48.58998647 0.37195432 52.29514885 0.41457558 C54.0688859 0.43190408 55.84270065 0.44260794 57.61651802 0.44652367 C60.09650307 0.45360665 62.57500836 0.48552172 65.0546875 0.5234375 C65.78469467 0.51997818 66.51470184 0.51651886 67.26683044 0.51295471 C72.08107752 0.62172587 74.62124466 1.6078743 77.96264648 5.08520508 C79.02193829 8.26308048 79.07723588 10.51109451 79.06030273 13.84692383 C79.05546875 15.52431641 79.05546875 15.52431641 79.05053711 17.2355957 C79.03796875 18.98646484 79.03796875 18.98646484 79.02514648 20.77270508 C79.02063477 21.95155273 79.01612305 23.13040039 79.01147461 24.3449707 C78.99967922 27.25843296 78.98321919 30.17179371 78.96264648 33.08520508 C78.09406006 32.27245117 77.22547363 31.45969727 76.33056641 30.62231445 C70.79618006 26.69983575 64.60880238 27.4081428 58.07592773 27.49145508 C56.72788093 27.49316855 55.37983079 27.4930981 54.03178406 27.49133301 C51.21828979 27.49297987 48.40559852 27.51156488 45.59228516 27.54321289 C41.99080954 27.58300482 38.39037787 27.58724127 34.78872395 27.57975006 C32.00994848 27.57667843 29.23140672 27.58880558 26.45268822 27.60588074 C24.48071526 27.61629772 22.50869783 27.61675793 20.53669739 27.61706543 C19.33832748 27.63297729 18.13995758 27.64888916 16.90527344 27.6652832 C15.32477959 27.67791199 15.32477959 27.67791199 13.71235657 27.6907959 C10.45132817 28.15854686 9.26972501 28.744556 6.96264648 31.08520508 C6.33688191 34.13993175 6.33688191 34.13993175 6.40760803 37.71864319 C6.39642911 38.39610405 6.38525019 39.07356491 6.37373251 39.77155489 C6.3413271 42.04697745 6.3376368 44.32153065 6.33398438 46.59716797 C6.31710762 48.22670148 6.29863101 49.8562191 6.27867126 51.48571777 C6.23043734 55.91789901 6.20878222 60.34982091 6.1948235 64.78222966 C6.18531895 67.55313536 6.17086966 70.32397176 6.15481377 73.09484673 C6.09979562 82.76735486 6.0688367 92.43965257 6.05664062 102.11230469 C6.04455053 111.1179681 5.97605807 120.12203406 5.8819142 129.12717825 C5.80385965 136.86410806 5.76835841 144.60050761 5.7649917 152.33782762 C5.76210774 156.95655237 5.74170214 161.57356876 5.67735481 166.19188118 C5.61800325 170.5421748 5.61179034 174.88942901 5.64528847 179.23996735 C5.6486318 180.83066473 5.63339563 182.42153425 5.59755325 184.01183128 C5.38344473 193.14961931 5.38344473 193.14961931 9.34393978 201.17699909 C12.10434308 203.70675792 14.92552255 205.90123948 17.96264648 208.08520508 C19.44882218 209.42791751 20.92527925 210.78161348 22.38427734 212.15380859 C27.66836001 216.14583465 32.78479623 216.07158857 39.21655273 215.98754883 C40.35801254 215.99984024 41.49947235 216.01213165 42.67552185 216.02479553 C46.29272777 216.05638584 49.90787916 216.04028684 53.52514648 216.02270508 C55.98935803 216.03582206 58.45355505 216.05206589 60.91772461 216.0715332 C66.93300298 216.11226721 72.94732006 216.11393697 78.96264648 216.08520508 C79.07907953 219.98078595 79.14997558 223.87591766 79.21264648 227.77270508 C79.24616211 228.87549805 79.27967773 229.97829102 79.31420898 231.11450195 C79.41337681 239.32063979 79.41337681 239.32063979 77.07202148 243.29223633 C73.17466278 246.60499123 69.73803764 246.25188366 64.82861328 246.27807617 C63.98779205 246.28625366 63.14697083 246.29443115 62.28067017 246.30285645 C59.49107581 246.32772058 56.70153236 246.34422871 53.91186523 246.35864258 C52.4842282 246.36662809 52.4842282 246.36662809 51.02775002 246.37477493 C45.99051341 246.40151047 40.95330162 246.4208844 35.91601562 246.43530273 C30.71033759 246.45195506 25.50529209 246.49673655 20.29985332 246.54767418 C16.29955814 246.58131219 12.29941376 246.59287636 8.29899025 246.59852982 C6.38001481 246.60525143 4.46104961 246.62049708 2.54221153 246.64442062 C-0.1440973 246.67600271 -2.82869136 246.67611973 -5.51513672 246.66870117 C-6.3075325 246.68510651 -7.09992828 246.70151184 -7.91633606 246.71841431 C-11.9934412 246.67233461 -13.79944347 246.27836528 -17.00749207 243.67373657 C-20.4722896 239.25533771 -20.19436945 235.74947905 -20.20903015 230.31196594 C-20.21537926 229.39231322 -20.22172837 228.4726605 -20.22826988 227.52513951 C-20.24840907 224.42448341 -20.26139797 221.32383814 -20.27441406 218.22314453 C-20.28726062 216.00763214 -20.30051482 213.79212207 -20.31414795 211.57661438 C-20.34983339 205.5434164 -20.37902778 199.51020348 -20.40653968 193.47696328 C-20.42402071 189.70959806 -20.44290012 185.94224256 -20.46228981 182.1748867 C-20.52639963 169.71589957 -20.5863515 157.25690198 -20.64097192 144.79787026 C-20.64391896 144.12577913 -20.646866 143.453688 -20.64990234 142.76123047 C-20.65285208 142.08831871 -20.65580181 141.41540694 -20.65884093 140.72210392 C-20.70687036 129.82434478 -20.76495042 118.92666542 -20.82760002 108.02898142 C-20.89180328 96.84066484 -20.94823382 85.65232679 -20.99716789 74.46393174 C-21.02477431 68.18207172 -21.05555416 61.90026627 -21.09418297 55.61846352 C-21.13025542 49.70802297 -21.15659741 43.79761806 -21.17546082 37.88709831 C-21.18403502 35.71790525 -21.19607749 33.54872269 -21.21184731 31.37957001 C-21.2328398 28.41744959 -21.24129676 25.45554651 -21.24662781 22.49336243 C-21.25566232 21.63576224 -21.26469683 20.77816206 -21.27400512 19.89457399 C-21.26519216 13.5740333 -20.80793267 8.34761178 -16.78735352 3.21020508 C-11.84084751 -0.61209502 -6.03351544 -0.05521322 0 0 Z " fill="#78C635" transform="translate(133.037353515625,154.914794921875)"/>
<path d="M0 0 C4.10763108 1.28046524 6.4695551 4.25120144 9.34375 7.3515625 C10.51419018 8.58463493 11.68738456 9.81509873 12.86328125 11.04296875 C13.4655957 11.67203125 14.06791016 12.30109375 14.68847656 12.94921875 C16.45742687 14.71535673 18.28476757 16.33399642 20.19140625 17.94921875 C23.84965295 21.0895931 27.21246542 24.45293456 30.5703125 27.90625 C31.10438217 28.45294846 31.63845184 28.99964691 32.18870544 29.56291199 C34.41225807 31.84052144 36.63401719 34.11937459 38.83691406 36.41699219 C40.46576818 38.11248557 42.1101388 39.79156648 43.7578125 41.46875 C44.24859283 41.98847382 44.73937317 42.50819763 45.24502563 43.04367065 C47.57482178 45.39117861 49.46097375 46.76379855 52.5859375 47.88720703 C56.61129841 47.75307282 57.68590936 46.43086828 60.4296875 43.5390625 C61.32171875 42.61996094 62.21375 41.70085937 63.1328125 40.75390625 C64.05803833 39.76632399 64.98251367 38.77803811 65.90625 37.7890625 C67.72424852 35.89101007 69.54452443 33.99513609 71.3671875 32.1015625 C72.24818115 31.18125244 73.1291748 30.26094238 74.03686523 29.31274414 C76.74511376 26.57268688 79.58342615 24.07783066 82.51660156 21.58544922 C84.88726156 19.4716203 87.08428681 17.23164117 89.29296875 14.94921875 C90.10185547 14.11455078 90.91074219 13.27988281 91.74414062 12.41992188 C93.41320023 10.68763033 95.07451524 8.94784777 96.72851562 7.20117188 C97.53353516 6.37552734 98.33855469 5.54988281 99.16796875 4.69921875 C99.88686279 3.94777588 100.60575684 3.19633301 101.34643555 2.42211914 C103.98817302 0.44753182 105.30441378 0.3243498 108.53125 0.7890625 C110.48828125 2.29296875 110.48828125 2.29296875 112.34375 4.3515625 C114.75869947 6.9930744 117.2244755 9.40968397 119.94921875 11.72265625 C126.95267519 17.78029261 133.32545287 24.52965987 139.83154297 31.10986328 C147.46636285 38.92722585 147.46636285 38.92722585 155.53125 46.2890625 C162.37401081 52.10577047 168.52232813 58.7287778 174.83154297 65.10986328 C183.68818046 74.09663104 183.68818046 74.09663104 193.06054688 82.53710938 C194.53125 83.7890625 194.53125 83.7890625 196.53125 85.7890625 C195.97569444 90.34461806 195.97569444 90.34461806 194.53125 91.7890625 C186.91637386 92.81164641 177.98307189 93.55952558 171.05078125 90.00390625 C168.71095277 88.04425669 166.64092588 85.9870504 164.53125 83.7890625 C163.87125 83.7890625 163.21125 83.7890625 162.53125 83.7890625 C162.42941406 83.19738281 162.32757813 82.60570312 162.22265625 81.99609375 C161.410506 79.40363674 160.4231139 78.34188932 158.46875 76.4765625 C157.64697266 75.67798828 157.64697266 75.67798828 156.80859375 74.86328125 C155.55357331 73.72020088 154.29003647 72.58551227 152.99267578 71.49072266 C145.09012426 64.77576481 137.9446391 57.26172228 130.65820312 49.89550781 C121.5868457 40.67795035 121.5868457 40.67795035 111.984375 32.0234375 C110.53125 30.7890625 110.53125 30.7890625 108.53125 28.7890625 C106.16040129 28.24037603 106.16040129 28.24037603 103.53125 28.7890625 C100.94507726 30.70062851 100.94507726 30.70062851 98.51171875 33.35546875 C98.04945389 33.82718002 97.58718903 34.2988913 97.11091614 34.78489685 C95.63459012 36.29574081 94.17630072 37.82261761 92.71875 39.3515625 C90.8003652 41.33670722 88.8753115 43.31530507 86.94921875 45.29296875 C85.57020386 46.71077637 85.57020386 46.71077637 84.16333008 48.15722656 C79.97822742 52.34194103 75.52018372 56.13970283 70.96875 59.9140625 C69.27443434 61.7032081 69.27443434 61.7032081 69.65625 64.109375 C70.77584564 67.53813664 72.46938473 69.09129771 75.09375 71.5390625 C76.58438621 72.94365574 78.06681606 74.35717154 79.53125 75.7890625 C79.53125 76.1190625 79.53125 76.4490625 79.53125 76.7890625 C78.64373047 76.79292969 78.64373047 76.79292969 77.73828125 76.796875 C73.00505038 76.9655239 73.00505038 76.9655239 68.890625 79.05078125 C66.6446683 81.73645839 65.04645442 84.65673407 63.53125 87.7890625 C62.685625 86.93183594 61.84 86.07460937 60.96875 85.19140625 C59.8230554 84.03632071 58.67721412 82.88138065 57.53125 81.7265625 C56.70173828 80.88448242 56.70173828 80.88448242 55.85546875 80.02539062 C52.94284854 77.09603122 49.98659927 74.28713905 46.84375 71.60546875 C40.54117941 66.15978668 34.79709392 60.11020439 28.94921875 54.18652344 C23.50184244 48.67494108 18.05724391 43.23720366 12.15380859 38.20654297 C9.37580269 35.77965427 6.95448798 33.02916021 4.48828125 30.29296875 C2.62582536 28.61046153 2.62582536 28.61046153 0.1953125 28.43701172 C-3.40910511 28.91332863 -4.55254251 30.31284783 -7.05078125 32.91796875 C-7.90091797 33.78873047 -8.75105469 34.65949219 -9.62695312 35.55664062 C-10.94083008 36.94012695 -10.94083008 36.94012695 -12.28125 38.3515625 C-14.01451241 40.14686562 -15.75015669 41.93987251 -17.48828125 43.73046875 C-18.33463135 44.60364746 -19.18098145 45.47682617 -20.05297852 46.37646484 C-22.13331099 48.45406419 -24.24805782 50.39532339 -26.484375 52.30078125 C-29.60615446 54.96150031 -32.46560493 57.78488806 -35.30859375 60.7421875 C-36.14455078 61.6084375 -36.98050781 62.4746875 -37.84179688 63.3671875 C-39.55739119 65.15464601 -41.26310291 66.95164035 -42.95898438 68.7578125 C-47.53868391 73.46795767 -51.11716597 76.76510247 -57.61572266 78.24975586 C-60.73417537 79.15735297 -61.88907108 81.07201477 -63.46875 83.7890625 C-64.17039642 85.77706068 -64.84247872 87.77604767 -65.46875 89.7890625 C-67.91861932 92.23893182 -68.605828 92.04537561 -71.96875 92.0546875 C-72.855625 92.05726563 -73.7425 92.05984375 -74.65625 92.0625 C-75.584375 92.05476563 -76.5125 92.04703125 -77.46875 92.0390625 C-78.396875 92.04679687 -79.325 92.05453125 -80.28125 92.0625 C-81.6115625 92.05863281 -81.6115625 92.05863281 -82.96875 92.0546875 C-83.7834375 92.05243164 -84.598125 92.05017578 -85.4375 92.04785156 C-87.46875 91.7890625 -87.46875 91.7890625 -89.46875 89.7890625 C-89.50842948 86.10337032 -88.13333535 84.17371811 -85.72827148 81.57861328 C-84.52586887 80.37008999 -83.3122853 79.17262465 -82.08984375 77.984375 C-81.44435074 77.3421701 -80.79885773 76.69996521 -80.13380432 76.03829956 C-78.06713493 73.9873635 -75.98674198 71.95096505 -73.90625 69.9140625 C-72.53234107 68.55165003 -71.15928466 67.18837727 -69.78710938 65.82421875 C-68.45128263 64.50183418 -67.11471655 63.18019597 -65.77734375 61.859375 C-64.85966469 60.95277634 -64.85966469 60.95277634 -63.92344666 60.02786255 C-60.83042572 57.00136353 -57.68451468 54.07618501 -54.41235352 51.24365234 C-50.80546715 48.11910164 -47.40908839 44.84487847 -44.0625 41.4453125 C-43.49349976 40.87252563 -42.92449951 40.29973877 -42.33825684 39.70959473 C-40.54592018 37.90520999 -38.75690684 36.0975889 -36.96875 34.2890625 C-23.47226891 20.63883793 -23.47226891 20.63883793 -17.19482422 15.31005859 C-13.60574023 12.14740043 -10.37758376 8.58456217 -7.13867188 5.06835938 C-4.83228438 2.67294365 -3.19886882 1.02242326 0 0 Z " fill="#036939" transform="translate(177.46875,79.2109375)"/>
<path d="M0 0 C6.93 0 13.86 0 21 0 C21 4.29 21 8.58 21 13 C19.35 13 17.7 13 16 13 C16 15.64 16 18.28 16 21 C17.65 21 19.3 21 21 21 C21.01458252 21.85754883 21.02916504 22.71509766 21.04418945 23.59863281 C21.10535478 26.78960413 21.17952762 29.97993587 21.26245117 33.17041016 C21.29564193 34.54952667 21.32369217 35.92877711 21.34643555 37.30810547 C21.38008642 39.29422306 21.43394729 41.27996559 21.48828125 43.265625 C21.51446533 44.45961914 21.54064941 45.65361328 21.56762695 46.88378906 C21.72134465 49.98515574 21.72134465 49.98515574 23.5007782 51.82710266 C25.45096062 54.65359984 25.39231931 56.46656987 25.41992188 59.88256836 C25.44378967 61.65977516 25.44378967 61.65977516 25.46813965 63.47288513 C25.46834106 64.74898148 25.46854248 66.02507782 25.46875 67.33984375 C25.48017029 69.31121056 25.48017029 69.31121056 25.49182129 71.32240295 C25.50525526 74.10231058 25.50683994 76.88193427 25.50097656 79.66186523 C25.49508096 83.21762212 25.52566785 86.7720133 25.56609344 90.32750607 C25.59821832 93.7274952 25.59385414 97.12720332 25.59375 100.52734375 C25.61014526 101.80141586 25.62654053 103.07548798 25.64343262 104.38816833 C25.6341272 105.57612503 25.62482178 106.76408173 25.61523438 107.98803711 C25.61728882 109.03076279 25.61934326 110.07348846 25.62145996 111.14781189 C24.74403912 115.17473147 23.320069 116.59002487 20 119 C17.01283574 119.51003147 14.58994989 119.71528222 11.60473633 119.69458008 C10.77150848 119.70816055 9.93828064 119.72174103 9.07980347 119.73573303 C6.33010202 119.77297468 3.5819624 119.77306571 0.83203125 119.76953125 C-1.08743392 119.78052528 -3.00689338 119.7925599 -4.92634583 119.80558777 C-8.95049847 119.826492 -12.97410486 119.82777717 -16.99829102 119.81665039 C-22.1356979 119.80498829 -27.27061956 119.8523761 -32.40757275 119.91611195 C-36.37388122 119.95686722 -40.33959932 119.96045999 -44.30608559 119.95371056 C-46.1986086 119.95590648 -48.09116306 119.97068336 -49.98348045 119.99866676 C-66.59284098 120.21604434 -66.59284098 120.21604434 -73.00073242 115.13720703 C-74.36429746 113.78826355 -75.70095156 112.41118081 -77 111 C-78.25806973 109.93086724 -79.52885929 108.8762149 -80.8203125 107.84765625 C-81.92301089 106.92062028 -83.02461089 105.9922759 -84.125 105.0625 C-84.69992188 104.58232422 -85.27484375 104.10214844 -85.8671875 103.60742188 C-87.26455732 102.42797521 -88.63530384 101.21710363 -90 100 C-90 99.67 -90 99.34 -90 99 C-88.93368851 98.99857498 -87.86737701 98.99714996 -86.76875305 98.99568176 C-76.71897491 98.97901113 -66.66960164 98.93623551 -56.62003803 98.86790943 C-51.4534201 98.83362084 -46.28709844 98.80852653 -41.12036133 98.80444336 C-36.13396144 98.80016445 -31.14823012 98.77173542 -26.1620388 98.72656822 C-24.2598987 98.71358021 -22.35767864 98.70929015 -20.45549965 98.71384621 C-17.79031848 98.718743 -15.12709829 98.69270221 -12.4621582 98.65942383 C-11.2828775 98.67236229 -11.2828775 98.67236229 -10.07977295 98.68556213 C-6.18473409 98.60404799 -4.18869271 98.13798236 -1.01530457 95.81742859 C1.25005742 92.65041565 1.64528892 91.11032392 1.70703125 87.26171875 C1.73603516 86.19501953 1.76503906 85.12832031 1.79492188 84.02929688 C1.80362305 82.37510742 1.80362305 82.37510742 1.8125 80.6875 C1.83763672 79.56537109 1.86277344 78.44324219 1.88867188 77.28710938 C1.9474532 74.52438714 1.9837998 71.76324608 2 69 C1.37740799 69.02442673 0.75481598 69.04885345 0.11335754 69.07402039 C-6.42460947 69.31924672 -12.96125247 69.48402522 -19.50268555 69.60424805 C-21.93649428 69.65923571 -24.3699452 69.73405673 -26.80249023 69.82983398 C-50.26161378 70.7297019 -50.26161378 70.7297019 -57.98828125 63.64453125 C-59.78810466 61.83111899 -61.37436857 59.98197881 -63 58 C-63.99086188 56.99094463 -64.98891175 55.98878741 -66 55 C-65.2446698 54.99635437 -64.4893396 54.99270874 -63.71112061 54.98895264 C-56.58946433 54.95107077 -49.46833106 54.89421699 -42.34701157 54.81609726 C-38.68591277 54.77660357 -35.02505515 54.74442479 -31.36376953 54.72900391 C-27.82973078 54.71384913 -24.29635499 54.67942639 -20.76261139 54.63169098 C-18.75971038 54.60965376 -16.75662244 54.60752524 -14.75360107 54.60565186 C-13.53263733 54.58593323 -12.31167358 54.5662146 -11.05371094 54.54589844 C-9.97893494 54.53701599 -8.90415894 54.52813354 -7.79681396 54.51898193 C-4.27186969 53.8648868 -3.09289045 52.88335623 -1 50 C-0.39046104 47.59268621 -0.39046104 47.59268621 -0.45410156 44.95605469 C-0.43438293 43.95531921 -0.41466431 42.95458374 -0.39434814 41.92352295 C-0.39311951 40.85047913 -0.39189087 39.7774353 -0.390625 38.671875 C-0.37408875 37.56773254 -0.35755249 36.46359009 -0.34051514 35.32598877 C-0.29194374 31.80060311 -0.2706431 28.27564911 -0.25 24.75 C-0.2218481 22.35935318 -0.19192178 19.96872654 -0.16015625 17.578125 C-0.08618176 11.71878552 -0.03666255 5.85968696 0 0 Z " fill="#010200" transform="translate(210,302)"/>
<path d="M0 0 C14.75254545 8.54295917 14.75254545 8.54295917 17.00368881 16.58608818 C17.37472401 20.93202223 17.39838501 25.15480076 17.29638672 29.50952148 C17.29819798 31.16129207 17.30482046 32.81306326 17.31585693 34.46479797 C17.33174901 38.92418081 17.27969856 43.38040001 17.21412802 47.83923221 C17.15628299 52.51154478 17.15885647 57.18384752 17.15408325 61.85646057 C17.13753069 69.69383768 17.08020129 77.53002923 16.99462891 85.36694336 C16.88490655 95.43082079 16.83998961 105.49388155 16.81632805 115.55828762 C16.79576376 124.21504538 16.74880432 132.87162802 16.69590616 141.5282414 C16.67967539 144.31066989 16.66646632 147.09310244 16.65340805 149.87554741 C16.63097165 154.23998166 16.5921785 158.60398475 16.54055023 162.96816826 C16.5237703 164.57136551 16.51203858 166.17462452 16.5056572 167.77789688 C16.49596097 169.96188282 16.4678647 172.14485924 16.43478394 174.32859802 C16.42326231 175.55173423 16.41174068 176.77487043 16.39986992 178.03507137 C16 181 16 181 14.63896847 182.88936806 C12.16336102 184.56694073 10.06596077 184.44912206 7.09838867 184.53100586 C5.27454903 184.58876442 5.27454903 184.58876442 3.41386414 184.64768982 C2.09521866 184.66985062 0.77657318 184.69201141 -0.58203125 184.71484375 C-1.25685736 184.72707033 -1.93168346 184.73929691 -2.62695885 184.751894 C-6.20920402 184.81449098 -9.79110569 184.85736168 -13.3737793 184.88549805 C-16.31515914 184.91193505 -19.25221708 184.97414238 -22.19213867 185.07006836 C-50.45520977 185.97389955 -50.45520977 185.97389955 -58.94921875 178.06640625 C-61.35933486 175.59029615 -63.44325726 173.11348547 -65 170 C-63.88579681 169.99453156 -63.88579681 169.99453156 -62.74908447 169.98895264 C-55.74517014 169.95106904 -48.74172601 169.89421287 -41.73816299 169.81609726 C-38.13759807 169.77660548 -34.5372783 169.74442579 -30.93652344 169.72900391 C-27.4608341 169.71384782 -23.98581867 169.6794229 -20.51042938 169.63169098 C-18.5407688 169.60965628 -16.5709182 169.60752535 -14.60113525 169.60565186 C-13.40019226 169.58593323 -12.19924927 169.5662146 -10.96191406 169.54589844 C-9.90490295 169.53701599 -8.84789185 169.52813354 -7.7588501 169.51898193 C-4.20554502 168.85055086 -3.20962969 167.83820881 -1 165 C-0.39375424 161.84495327 -0.39375424 161.84495327 -0.48101807 158.25494385 C-0.47351681 157.57774001 -0.46601556 156.90053617 -0.458287 156.202811 C-0.43799463 153.93470047 -0.44611483 151.66758816 -0.45410156 149.39941406 C-0.44536732 147.77321889 -0.43488206 146.14703232 -0.42277527 144.52085876 C-0.39487612 140.10587901 -0.39151144 135.69117912 -0.39249516 131.276124 C-0.38936941 126.66226978 -0.36375827 122.04854225 -0.34051514 117.43475342 C-0.29992564 108.69776919 -0.27960751 99.96085966 -0.26654124 91.22379565 C-0.25068118 81.27702941 -0.21226976 71.33039046 -0.17194796 61.38369799 C-0.08950866 40.92250729 -0.03544174 20.46132252 0 0 Z " fill="#000000" transform="translate(302,187)"/>
<path d="M0 0 C4.06884412 1.33508948 6.44913865 4.29413747 9.3125 7.3828125 C12.82742969 11.08583207 16.31003056 14.72095272 20.19921875 18.03515625 C26.50877454 23.45803777 32.24110726 29.50621189 38.08203125 35.42285156 C48.09143786 45.58986105 48.09143786 45.58986105 59.03125 54.7265625 C62.83460457 57.80546858 64.35423725 59.69976138 65 64.6640625 C65.08130734 68.40773545 64.84933626 72.09405901 64.5 75.8203125 C61.203125 76.53125 61.203125 76.53125 57.5 76.8203125 C55.671875 75.484375 55.671875 75.484375 54.25 73.4453125 C50.48455704 68.61243371 46.13083064 64.94097077 41.24378967 61.26574707 C39.5 59.8203125 39.5 59.8203125 37.43089294 57.63952637 C30.25902921 50.64503916 24.77089478 49.67630342 15.05647278 49.6481781 C13.34622851 49.67203752 11.63599779 49.69688607 9.92578125 49.72265625 C8.14786643 49.7169937 6.36996024 49.70737029 4.59208679 49.69398499 C-0.05270689 49.66951619 -4.69564971 49.69831098 -9.340271 49.73876953 C-14.09344512 49.77055993 -18.84639273 49.75119568 -23.59960938 49.73632812 C-32.90021552 49.7146795 -42.19967084 49.7493827 -51.5 49.8203125 C-48.00035798 45.6636388 -44.44388859 41.63682328 -40.6015625 37.7890625 C-39.70953125 36.89574219 -38.8175 36.00242188 -37.8984375 35.08203125 C-36.98320312 34.17066406 -36.06796875 33.25929687 -35.125 32.3203125 C-34.2175 31.40894531 -33.31 30.49757812 -32.375 29.55859375 C-27.83309663 25.02323491 -23.23170501 20.6535594 -18.35839844 16.47802734 C-14.51427719 13.04902271 -11.02558718 9.23069998 -7.52539062 5.45507812 C-3.3049871 1.08444889 -3.3049871 1.08444889 0 0 Z " fill="#FBFCFC" transform="translate(177.5,106.1796875)"/>
<path d="M0 0 C1.95703125 1.50390625 1.95703125 1.50390625 3.8125 3.5625 C6.21767621 6.19332174 8.67157941 8.60058203 11.38671875 10.90234375 C18.60389776 17.14483935 25.16693245 24.11401565 31.87304688 30.89355469 C41.61970136 40.78470746 41.61970136 40.78470746 52 50 C51.01 50.495 51.01 50.495 50 51 C49.34 50.67 48.68 50.34 48 50 C45.61596373 49.93503231 43.26196644 49.92975153 40.87915039 49.96923828 C39.35800073 49.98534786 37.83684667 50.00104475 36.31568909 50.01638794 C35.10243548 50.0306954 35.10243548 50.0306954 33.86467171 50.0452919 C28.67229912 50.09690711 23.4795992 50.09107843 18.28701115 50.09665108 C13.72991025 50.10484478 9.17452408 50.13239195 4.61791992 50.20214844 C0.20576884 50.26856685 -4.20366026 50.28053065 -8.61621284 50.25689316 C-10.29026895 50.2575 -11.96444266 50.27736583 -13.63801384 50.31766129 C-21.4816874 50.49674568 -28.06632873 50.6465063 -34.19145298 45.22108269 C-36.48071273 42.93079047 -38.35054017 40.79660356 -40 38 C-39.81778933 33.28665085 -37.77893886 31.31849729 -34.4375 28.125 C-33.61121094 27.32320312 -32.78492188 26.52140625 -31.93359375 25.6953125 C-29.70961 23.65197191 -27.46211218 21.67326037 -25.171875 19.70703125 C-22.27652468 17.19064275 -19.55525736 14.57962664 -16.89453125 11.81640625 C-16.22099609 11.11708984 -15.54746094 10.41777344 -14.85351562 9.69726562 C-13.47356522 8.25392994 -12.10134182 6.80317306 -10.73632812 5.34570312 C-10.06666016 4.65541016 -9.39699219 3.96511719 -8.70703125 3.25390625 C-8.1138208 2.62814697 -7.52061035 2.0023877 -6.90942383 1.35766602 C-4.44137461 -0.39720186 -2.9669018 -0.36904477 0 0 Z " fill="#FAFCFB" transform="translate(286,107)"/>
<path d="M0 0 C6.75232198 4.50154799 6.75232198 4.50154799 9.796875 7.1640625 C10.44527344 7.72867188 11.09367188 8.29328125 11.76171875 8.875 C12.41785156 9.4525 13.07398438 10.03 13.75 10.625 C14.42160156 11.21023437 15.09320313 11.79546875 15.78515625 12.3984375 C18.24923752 14.55142234 20.68562361 16.68562361 23 19 C22.6730244 21.61580479 22.17960932 23.64078137 21 26 C20.88232528 27.4494793 20.82310732 28.90393996 20.79467773 30.35791016 C20.77473251 31.25869293 20.75478729 32.15947571 20.73423767 33.08755493 C20.70916893 34.54855118 20.70916893 34.54855118 20.68359375 36.0390625 C20.66281265 37.03505463 20.64203156 38.03104675 20.62062073 39.05722046 C20.55510958 42.24640854 20.49623296 45.43568058 20.4375 48.625 C20.39431627 50.78386293 20.35070203 52.9427173 20.30664062 55.1015625 C20.19942664 60.4009523 20.09766315 65.70042606 20 71 C18.35 71 16.7 71 15 71 C15 72.32 15 73.64 15 75 C9.72 75 4.44 75 -1 75 C-1.33 58.5 -1.66 42 -2 25 C-1.34 25.33 -0.68 25.66 0 26 C0 17.42 0 8.84 0 0 Z " fill="#000200" transform="translate(211,161)"/>
<path d="M0 0 C0.9075 -0.00773437 1.815 -0.01546875 2.75 -0.0234375 C8.37987559 -0.00721307 13.22363317 0.65615405 18.625 2.25 C15.05166063 15.07198245 7.84761882 25.37015194 -3.4765625 32.58984375 C-5.40988585 33.61042281 -7.34224797 34.44823725 -9.375 35.25 C-10.00148438 35.54648438 -10.62796875 35.84296875 -11.2734375 36.1484375 C-19.17135866 39.44680304 -31.22941244 39.90105737 -39.375 37.25 C-39.375 36.59 -39.375 35.93 -39.375 35.25 C-38.1890625 34.71632812 -37.003125 34.18265625 -35.78125 33.6328125 C-18.46979639 26.21280412 -18.46979639 26.21280412 -3.375 15.25 C-10.19943135 15.72778983 -15.59245112 17.72855789 -21.8125 20.5 C-22.70259766 20.88285156 -23.59269531 21.26570313 -24.50976562 21.66015625 C-29.71802366 23.93520249 -34.68156146 26.44351504 -39.58227539 29.32324219 C-41.375 30.25 -41.375 30.25 -43.375 30.25 C-42.2650623 21.58935935 -35.06203799 14.11982252 -28.515625 8.74609375 C-24.70834666 6.08516747 -20.65389813 4.04069875 -16.375 2.25 C-15.4984375 1.88003906 -14.621875 1.51007813 -13.71875 1.12890625 C-9.11163504 -0.08207607 -4.74249509 -0.04007742 0 0 Z " fill="#8DC44C" transform="translate(419.375,127.75)"/>
<path d="M0 0 C8.29074169 5.43655193 14.25428541 12.34301345 18.625 21.25 C18.625 21.91 18.625 22.57 18.625 23.25 C15.75360184 22.62180677 13.33154226 21.71825952 10.7109375 20.39453125 C9.9578833 20.02191162 9.2048291 19.64929199 8.42895508 19.26538086 C7.6273999 18.86843018 6.82584473 18.47147949 6 18.0625 C-3.21542864 13.57987591 -12.58417553 10.23286767 -22.375 7.25 C-22.375 7.91 -22.375 8.57 -22.375 9.25 C-21.64796875 9.51683594 -20.9209375 9.78367187 -20.171875 10.05859375 C-17.39048507 11.2434037 -15.12880055 12.62602288 -12.625 14.3125 C-3.93132996 19.95804835 5.35301961 24.63258195 14.625 29.25 C14.625 29.91 14.625 30.57 14.625 31.25 C5.61888314 34.25203895 -6.77089398 32.9151932 -15.375 29.25 C-28.24469325 22.54925062 -37.66555555 12.69948078 -42.5703125 -1.1171875 C-42.83585937 -1.98601563 -43.10140625 -2.85484375 -43.375 -3.75 C-28.86073341 -9.36842578 -13.51900671 -7.56568265 0 0 Z " fill="#8DC44D" transform="translate(135.375,61.75)"/>
<path d="M0 0 C3.5 0.875 3.5 0.875 5.19448853 2.5907135 C6.78123374 5.36708179 6.88020152 7.11112676 6.88818359 10.29858398 C6.89764008 11.38328476 6.90709656 12.46798553 6.9168396 13.58555603 C6.91076691 14.75228348 6.90469421 15.91901093 6.8984375 17.12109375 C6.90274277 18.92599022 6.90274277 18.92599022 6.90713501 20.76734924 C6.90917634 23.31178254 6.90364175 25.8562315 6.89111328 28.40063477 C6.87507563 32.29414018 6.89095354 36.18660525 6.91015625 40.08007812 C6.90817356 42.55208562 6.90432935 45.02409248 6.8984375 47.49609375 C6.90754654 49.24314857 6.90754654 49.24314857 6.9168396 51.02549744 C6.90738312 52.11335037 6.89792664 53.20120331 6.88818359 54.32202148 C6.88579681 55.2759227 6.88341003 56.22982391 6.88095093 57.21263123 C6.42073719 60.42894756 5.47074095 62.3029213 3.5 64.875 C0 65.8125 0 65.8125 -3.5 65.875 C-4.49 65.215 -5.48 64.555 -6.5 63.875 C-6.88095093 61.29418945 -6.88095093 61.29418945 -6.88818359 57.98828125 C-6.90236832 56.13626099 -6.90236832 56.13626099 -6.9168396 54.24682617 C-6.91147007 52.8937142 -6.90531716 51.54060514 -6.8984375 50.1875 C-6.90045762 48.80509284 -6.90336854 47.42268671 -6.90713501 46.0402832 C-6.91156135 43.14166121 -6.90511773 40.24331637 -6.89111328 37.34472656 C-6.87402075 33.62526897 -6.88386034 29.90646073 -6.90183067 26.18702698 C-6.91266042 23.33202198 -6.909226 20.47717147 -6.9014473 17.62216187 C-6.89944302 16.2505994 -6.90191254 14.87902301 -6.90888596 13.50747681 C-6.91648621 11.59222677 -6.90285228 9.67692769 -6.88818359 7.76171875 C-6.88579681 6.67076904 -6.88341003 5.57981934 -6.88095093 4.45581055 C-6.75523712 3.60414307 -6.62952332 2.75247559 -6.5 1.875 C-3.5 -0.125 -3.5 -0.125 0 0 Z " fill="#EBECE8" transform="translate(325.5,218.125)"/>
<path d="M0 0 C2.4375 0.75 2.4375 0.75 4.4375 2.75 C4.64995194 5.80005447 4.74145229 8.75694627 4.73828125 11.80859375 C4.74256638 12.70868668 4.7468515 13.6087796 4.75126648 14.53614807 C4.7570153 16.44181476 4.75750599 18.34750339 4.75317383 20.25317383 C4.75001631 23.1724181 4.77345734 26.09064694 4.79882812 29.00976562 C4.80110127 30.85937372 4.80180454 32.70898454 4.80078125 34.55859375 C4.809991 35.43366074 4.81920074 36.30872772 4.82868958 37.21031189 C4.82246078 38.02448074 4.81623199 38.8386496 4.80981445 39.67749023 C4.81044388 40.39315659 4.8110733 41.10882294 4.8117218 41.84617615 C4.321131 44.34201808 3.46981887 45.25516186 1.4375 46.75 C-3.99728261 46.31521739 -3.99728261 46.31521739 -5.5625 44.75 C-5.67068174 43.41026951 -5.71148799 42.06498357 -5.72363281 40.72094727 C-5.73324036 39.86658585 -5.7428479 39.01222443 -5.75274658 38.13197327 C-5.75699646 37.20283615 -5.76124634 36.27369904 -5.765625 35.31640625 C-5.77132507 34.36813461 -5.77702515 33.41986298 -5.78289795 32.44285583 C-5.79236272 30.43286256 -5.79888777 28.42285367 -5.80273438 26.4128418 C-5.81244806 23.32899088 -5.84346082 20.2458039 -5.875 17.16210938 C-5.88152882 15.21354564 -5.88677977 13.26497712 -5.890625 11.31640625 C-5.9029718 10.38929337 -5.9153186 9.46218048 -5.92803955 8.50697327 C-5.9235379 7.2207029 -5.9235379 7.2207029 -5.91894531 5.90844727 C-5.92259094 5.15201431 -5.92623657 4.39558136 -5.92999268 3.6162262 C-5.80872009 3.00037155 -5.68744751 2.38451691 -5.5625 1.75 C-2.5625 -0.25 -2.5625 -0.25 0 0 Z " fill="#E9EBE8" transform="translate(290.5625,226.25)"/>
<path d="M0 0 C6.30945467 2.96915514 9.54480419 8.42915408 12.875 14.3125 C15.34132044 22.39655034 14.44196137 29.39900198 11 37 C10.34 37 9.68 37 9 37 C8.81824219 36.01 8.63648438 35.02 8.44921875 34 C7.1469339 27.09727888 5.7803368 20.48745253 3 14 C2.84583491 19.01036534 3.36020632 23.37421591 4.5 28.25 C6 34.72222222 6 34.72222222 6 38 C2.16600092 36.52794396 0.82247836 34.58125389 -1.1875 31.0625 C-1.69667969 30.18722656 -2.20585937 29.31195313 -2.73046875 28.41015625 C-5.82004357 22.54471729 -5.68940507 16.48334132 -5 10 C-3.69721968 6.41052135 -2.03769363 3.22392243 0 0 Z " fill="#8FC550" transform="translate(154,41)"/>
<path d="M0 0 C4.59544952 7.57018247 5.23738552 15.31059868 4 24 C1.80333955 29.59085516 -1.04312409 33.59484177 -6 37 C-5.93941406 36.42894531 -5.87882812 35.85789063 -5.81640625 35.26953125 C-5.08466041 28.18848306 -4.52298617 21.09925906 -4 14 C-6.57243067 21.26774103 -8.7205886 28.39086902 -10 36 C-10.66 36 -11.32 36 -12 36 C-14.91697511 28.81173992 -16.66978434 21.95740419 -14.12109375 14.390625 C-11.48010059 8.63796664 -7.04048559 0 0 0 Z " fill="#8FC54F" transform="translate(377,114)"/>
<path d="M0 0 C2.5 2.0625 2.5 2.0625 4 5 C4.0625 8.625 4.0625 8.625 3 12 C0.8125 14 0.8125 14 -2 15 C-7.41666667 14.58333333 -7.41666667 14.58333333 -9 13 C-9.31241849 11.38583778 -9.55131336 9.75706882 -9.75 8.125 C-9.86859375 7.24070313 -9.9871875 6.35640625 -10.109375 5.4453125 C-10 3 -10 3 -8.73046875 1.2109375 C-5.79256933 -0.84492891 -3.45329258 -0.48467264 0 0 Z " fill="#E7EBE3" transform="translate(328,197)"/>
<path d="M0 0 C7.71484375 -0.09765625 7.71484375 -0.09765625 10 0 C11 1 11 1 11.1328125 3.03125 C11.13023437 3.8459375 11.12765625 4.660625 11.125 5.5 C11.12757813 6.3146875 11.13015625 7.129375 11.1328125 7.96875 C11 10 11 10 10 11 C6.66381769 11.14257189 3.34024394 11.04228157 0 11 C0 7.37 0 3.74 0 0 Z " fill="#147346" transform="translate(272,143)"/>
<path d="M0 0 C7.71484375 -0.09765625 7.71484375 -0.09765625 10 0 C11 1 11 1 11.1328125 3.03125 C11.13023437 3.8459375 11.12765625 4.660625 11.125 5.5 C11.12757813 6.3146875 11.13015625 7.129375 11.1328125 7.96875 C11 10 11 10 10 11 C6.66381769 11.14257189 3.34024394 11.04228157 0 11 C0 7.37 0 3.74 0 0 Z " fill="#137346" transform="translate(165,143)"/>
<path d="M0 0 C1.64574566 -0.02688151 3.29161413 -0.04634123 4.9375 -0.0625 C5.85402344 -0.07410156 6.77054687 -0.08570313 7.71484375 -0.09765625 C10 0 10 0 11 1 C11.0979057 2.49738124 11.12974864 3.99942892 11.125 5.5 C11.12757813 6.3146875 11.13015625 7.129375 11.1328125 7.96875 C11 10 11 10 10 11 C8.50261876 11.0979057 7.00057108 11.12974864 5.5 11.125 C4.6853125 11.12757813 3.870625 11.13015625 3.03125 11.1328125 C1 11 1 11 0 10 C-0.07205511 8.31391034 -0.08386068 6.62499341 -0.0625 4.9375 C-0.05347656 4.01839844 -0.04445313 3.09929687 -0.03515625 2.15234375 C-0.02355469 1.44207031 -0.01195312 0.73179687 0 0 Z " fill="#0E7042" transform="translate(272,129)"/>
<path d="M0 0 C1.64574566 -0.02688151 3.29161413 -0.04634123 4.9375 -0.0625 C5.85402344 -0.07410156 6.77054688 -0.08570313 7.71484375 -0.09765625 C10 0 10 0 11 1 C11.0979057 2.49738124 11.12974864 3.99942892 11.125 5.5 C11.12757813 6.3146875 11.13015625 7.129375 11.1328125 7.96875 C11 10 11 10 10 11 C8.50261876 11.0979057 7.00057108 11.12974864 5.5 11.125 C4.6853125 11.12757813 3.870625 11.13015625 3.03125 11.1328125 C1 11 1 11 0 10 C-0.07205511 8.31391034 -0.08386068 6.62499341 -0.0625 4.9375 C-0.05347656 4.01839844 -0.04445312 3.09929687 -0.03515625 2.15234375 C-0.02355469 1.44207031 -0.01195312 0.73179687 0 0 Z " fill="#0D6F41" transform="translate(165,129)"/>
<path d="M0 0 C3.3 0 6.6 0 10 0 C10 3.63 10 7.26 10 11 C6.7 11 3.4 11 0 11 C0 7.37 0 3.74 0 0 Z " fill="#0C6F40" transform="translate(287,143)"/>
<path d="M0 0 C3.3 0 6.6 0 10 0 C10 3.63 10 7.26 10 11 C6.7 11 3.4 11 0 11 C0 7.37 0 3.74 0 0 Z " fill="#0C6F40" transform="translate(180,143)"/>
<path d="M0 0 C3.3 0 6.6 0 10 0 C10 3.63 10 7.26 10 11 C6.7 11 3.4 11 0 11 C0 7.37 0 3.74 0 0 Z " fill="#076C3C" transform="translate(287,129)"/>
<path d="M0 0 C3.3 0 6.6 0 10 0 C10 3.63 10 7.26 10 11 C6.7 11 3.4 11 0 11 C0 7.37 0 3.74 0 0 Z " fill="#076C3C" transform="translate(180,129)"/>
<path d="M0 0 C3 0.25 3 0.25 5 2.25 C5.25 5.25 5.25 5.25 5 8.25 C3 10.25 3 10.25 0 10.5 C-3 10.25 -3 10.25 -5 8.25 C-5.25 5.25 -5.25 5.25 -5 2.25 C-3 0.25 -3 0.25 0 0 Z " fill="#E5E9E4" transform="translate(290,211.75)"/>
<path d="M0 0 C1.32 0 2.64 0 4 0 C4 2.31 4 4.62 4 7 C2.68 7 1.36 7 0 7 C0 4.69 0 2.38 0 0 Z " fill="#78C634" transform="translate(227,316)"/>
</svg>
